<?xml version="1.0" encoding="UTF-8"?>
<svg width="20" height="20" version="1.1" viewBox="0 0 20 20" xmlns="http://www.w3.org/2000/svg" xmlns:xlink="http://www.w3.org/1999/xlink">
<g transform="translate(311 -2475)">
<use transform="translate(-311 2475)" fill="#000000" fill-opacity=".3" xlink:href="#a"/>
<mask id="c">
<use transform="translate(-311 2475)" fill="white" xlink:href="#a"/>
</mask>
<g mask="url(#c)">
<use transform="translate(-311 2475)" fill="#FFFFFF" fill-opacity=".8" xlink:href="#b"/>
</g>
</g>
<defs>
<path id="a" d="m20 10c0 5.5228-4.4772 10-10 10-5.5228 0-10-4.4772-10-10 0-5.5228 4.4772-10 10-10 5.5228 0 10 4.4772 10 10z"/>
<path id="b" d="m18 10c0 4.4183-3.5817 8-8 8v4c6.6274 0 12-5.3726 12-12h-4zm-8 8c-4.4183 0-8-3.5817-8-8h-4c0 6.6274 5.3726 12 12 12v-4zm-8-8c0-4.4183 3.5817-8 8-8v-4c-6.6274 0-12 5.3726-12 12h4zm8-8c4.4183 0 8 3.5817 8 8h4c0-6.6274-5.3726-12-12-12v4z"/>
</defs>
</svg>
